<?xml version="1.0" ?>
<svg  viewBox="0 0 512 512" width="512" height="512" >
<g>
<path d="m 404.57897,320.82178 c -21.5644,-16.4844 -27.871,-116.78634 -48.151,-175.17285 -20.231,-58.342063 -88.6575,-59.599843 -98.813,-68.555373 -10.1378,-8.84886 -16.1911,-17.9555 -16.1911,-17.9555 0,0 -0.9333,-1.27556 -2.0622,-2.00889 -2.8489,-3.33332 -15.2133,1.51111 -15.2133,4.23999 0,3.03999 0,218.754953 0,251.857083 0,32.37324 -38.63099,19.37328 -84.30197,52.3243 -34.94213,25.32882 -40.675441,54.46207 -30.34658,73.66202 8.85775,16.4844 48.48875,29.67103 93.74196,-5.10221 40.09769,-30.78658 36.71549,-71.18203 36.71549,-82.60422 0,-21.59549 0,-248.26597 0,-248.26597 0,0 0,-18.644403 0,-32.128803 0.9244,1.38666 2.7688,4.21332 6.2533,9.82219 22.9155,36.751013 -2.5778,69.759813 26.5821,139.590733 31.5066,75.52423 153.3152,116.76856 131.7863,100.2975 z m -29.4355,-24.72438 c 0,0 -38.2398,-46.00876 -52.7287,-84.37309 -12.4088,-33.02213 -28.1999,-73.26203 -42.8354,-93.63086 -9.2978,-12.83997 -17.6622,-24.662163 -20.1333,-28.755483 -1.6133,-2.67555 0.4978,-1.51999 0.4978,-1.51999 0,0 9.9422,12.075523 21.0044,25.928813 18.6666,23.3066 24.7066,36.0399 44.5554,88.26199 7.0577,18.56883 16.2844,40.7021 25.5777,55.77317 12.6577,20.71105 21.2799,32.85324 25.9421,38.98211 0.6445,0.90222 -1.88,-0.66666 -1.88,-0.66666 z" id="official.fm"/>
</g>
</svg>