<?xml version="1.0" encoding="iso-8859-1"?>
<svg x="0px" y="0px" width="512px" height="512px" viewBox="0 0 481.006 481.006">
<g>
<path d="M481.006,445.82h-362.16c0-26.446,5.776-51.497,15.964-74.151l62.28-59.294c11.179-1.998,21.653-7.765,30.162-16.724    l20.508-21.581c0.597-0.646,1.059-1.368,1.587-2.046c0.751-0.69,1.55-1.325,2.217-2.124c13.845-16.18,18.747-42.84-9.007-69.22    c-12.59-11.964-25.776-18.027-39.189-18.027c-11.239,0-21.752,4.345-30.411,12.553c-0.481,0.46-0.868,0.985-1.284,1.492    c-2.218-9.577-3.46-19.534-3.46-29.799c0-72.745,58.969-131.714,131.702-131.714c72.744,0,131.711,58.964,131.711,131.708    c0,47.18-24.873,88.463-62.161,111.708C434.954,305.862,481.006,370.442,481.006,445.82z M225.394,218.741    c-11.419-10.849-24.314-15.88-35.28-5.463l42.536,40.404C242.482,242.208,236.795,229.575,225.394,218.741z M209.189,278.481    l20.506-21.593l-42.636-40.515l-20.509,21.585c-6.252,6.579-8.197,15.926-7.226,24.28L71.438,362.46    c-6.641,6.982-10.597,14.248-5.864,21.022l0.283,0.263c-4.074,4.569-8.838,8.613-14.11,8.876    c-7.984,0.405-16.76-7.748-16.115-16.049c1.267-16.263,17.141-27.492,22.771-42.2c5.139-13.373,0.219-30.923-15.109-34.364    c-14.056-3.152-30.058,2.167-41.801,9.898c-3.522,2.306-0.154,7.908,3.37,5.588c10.491-6.885,33.502-16.438,44.216-5.221    c13.932,14.615-3.699,33.368-11.815,45.549c-4.064,6.084-8.234,13.33-8.16,20.908c0.068,7.497,4.282,14.282,10.26,18.588    c11.655,8.455,22.364,1.424,30.898-7.392l0.065,0.055c6.795,4.147,12.965-0.997,19.594-7.968l96.45-91.848    C194.844,288.791,202.874,285.123,209.189,278.481z"/>
</g>  
</svg>
