<?xml version="1.0" ?><svg height="24px" version="1.1" viewBox="0 0 24 24" width="24px">
<g fill="none" fill-rule="evenodd" stroke="none" stroke-width="1">
<g transform="translate(-323.000000, -191.000000)">
<g transform="translate(215.000000, 119.000000)"/>
<path d="M324,202.5 C324,196.148725 329.148725,191 335.5,191 C341.851275,191 347,196.148725 347,202.5 C347,208.851275 341.851275,214 335.5,214 C329.148725,214 324,208.851275 324,202.5 Z M338.887452,201.072586 L338.692617,200.753057 C338.936812,200.446515 339.058907,200.18414 339.058907,199.965924 C339.058907,199.628209 338.747174,199.352845 338.1237,199.139825 C337.489834,198.932 336.985866,198.703396 336.611781,198.454006 L336.619575,205.351159 L336.619575,205.748622 C336.619575,205.972034 336.609184,206.125302 336.588401,206.208432 C336.510467,206.52017 336.272771,206.781246 335.875306,206.991668 C335.477841,207.202091 334.959585,207.307301 334.320524,207.307301 C332.870945,207.307301 332.146167,206.886462 332.146167,206.044771 C332.146167,205.691469 332.373472,205.390127 332.828089,205.140737 C333.282706,204.891348 333.826939,204.766655 334.460805,204.766655 C335.032323,204.766655 335.585649,204.997856 336.120798,205.460267 L336.120798,196.716079 L336.596195,196.692699 C336.715694,197.014828 336.846881,197.238236 336.989761,197.362931 C337.132641,197.487626 337.404108,197.612319 337.804171,197.737014 C339.170619,198.147468 339.853833,198.711184 339.853833,199.42818 C339.853833,199.895786 339.531709,200.443916 338.887452,201.072586 C338.887452,201.072586 339.531709,200.443916 338.887452,201.072586 Z" fill="#000000" id="circle-music-sound-audio-mp3-single_note-glyph"/>
</g></g>
</svg>