<?xml version="1.0" ?>
<svg version="1.1" viewBox="0 0 20 20" enable-background="new 0 0 30 30"  x="0px" y="0px>
<title/>
<desc/><defs/>
<g fill-rule="evenodd">
<g transform="translate(-168.000000, -85.000000)">
<g transform="translate(168.000000, 85.000000)">
<path d="M8,14.5 L14,10 L8,5.5 L8,14.5 L8,14.5 Z M10,0 C4.5,0 0,4.5 0,10 C0,15.5 4.5,20 10,20 C15.5,20 20,15.5 20,10 C20,4.5 15.5,0 10,0 L10,0 Z M10,18 C5.6,18 2,14.4 2,10 C2,5.6 5.6,2 10,2 C14.4,2 18,5.6 18,10 C18,14.4 14.4,18 10,18 L10,18 Z" id="Shape"/></g>
</g>
</g>
</svg>