<?xml version="1.0" encoding="utf-8"?>
<!-- Generator: Adobe Illustrator 15.0.2, SVG Export Plug-In . SVG Version: 6.00 Build 0)  -->
<!DOCTYPE svg PUBLIC "-//W3C//DTD SVG 1.1//EN" "http://www.w3.org/Graphics/SVG/1.1/DTD/svg11.dtd">
<svg version="1.1" id="undo" xmlns="http://www.w3.org/2000/svg" xmlns:xlink="http://www.w3.org/1999/xlink" x="0px" y="0px"
	 width="512px" height="512px" viewBox="0 0 512 512" enable-background="new 0 0 512 512" xml:space="preserve">
<path d="M340.584,168.992l34.762-34.245h-86.738v85.698l34.596-34.245c20.524,19.882,30.788,43.204,30.788,69.968
	c0,26.656-9.602,49.459-28.801,68.41c-19.202,18.951-42.267,28.428-69.19,28.428c-27.148,0-50.266-9.449-69.356-28.348
	c-19.092-18.896-28.635-41.727-28.635-68.493c0-25.78,9.543-48.718,28.635-68.819l-17.381-17.042
	c-23.838,25.126-35.755,53.744-35.755,85.861c0,33.427,11.944,61.965,35.838,85.616c23.891,23.652,52.775,35.475,86.654,35.475
	c33.769,0,62.625-11.824,86.571-35.475c23.944-23.648,35.921-52.188,35.921-85.616C378.489,222.63,365.853,193.568,340.584,168.992z
	"/>
</svg>
